HIERARCHY
ROOT Hips
{
	OFFSET -3.958830 18.904000 13.208200
	CHANNELS 6 Xposition Yposition Zposition Zrotation Yrotation Xrotation 
	JOINT LHipJoint
	{
		OFFSET 0.000000 0.000000 0.000000
		CHANNELS 3 Zrotation Yrotation Xrotation
		JOINT LeftUpLeg
		{
			OFFSET 1.800000 -1.400000 0.085000
			CHANNELS 3 Zrotation Yrotation Xrotation
			JOINT LeftLeg
			{
				OFFSET 2.215000 -6.000000 0.000000
				CHANNELS 3 Zrotation Yrotation Xrotation
				JOINT LeftFoot
				{
					OFFSET 2.500000 -6.900000 0.000000
					CHANNELS 3 Zrotation Yrotation Xrotation
					JOINT LeftToeBase
					{
						OFFSET 0.200000 -0.500000 1.950000
						CHANNELS 3 Zrotation Yrotation Xrotation
						End Site
						{
							OFFSET 0.000000 0.000000 0.000000
						}
					}
				}
			}
		}
	}
	JOINT RHipJoint
	{
		OFFSET 0.000000 0.000000 0.000000
		CHANNELS 3 Zrotation Yrotation Xrotation
		JOINT RightUpLeg
		{
			OFFSET -1.800000 -1.400000 0.085000
			CHANNELS 3 Zrotation Yrotation Xrotation
			JOINT RightLeg
			{
				OFFSET -2.215000 -6.000000 0.000000
				CHANNELS 3 Zrotation Yrotation Xrotation
				JOINT RightFoot
				{
					OFFSET -2.500000 -6.900000 0.000000
					CHANNELS 3 Zrotation Yrotation Xrotation
					JOINT RightToeBase
					{
						OFFSET -0.200000 -0.500000 1.950000
						CHANNELS 3 Zrotation Yrotation Xrotation
						End Site
						{
							OFFSET 0.000000 0.000000 0.000000
						}
					}
				}
			}
		}
	}
	JOINT LowerBack
	{
		OFFSET 0.000000 0.000000 0.000000
		CHANNELS 3 Zrotation Yrotation Xrotation
		JOINT Spine
		{
			OFFSET -0.087000 1.940000 -0.288900
			CHANNELS 3 Zrotation Yrotation Xrotation
			JOINT Spine1
			{
				OFFSET 0.000000 1.950000 0.060000
				CHANNELS 3 Zrotation Yrotation Xrotation
				JOINT Neck
				{
					OFFSET 0.000000 0.000000 0.000000
					CHANNELS 3 Zrotation Yrotation Xrotation
					JOINT Neck1
					{
						OFFSET 0.000000 1.600000 0.340000
						CHANNELS 3 Zrotation Yrotation Xrotation
						JOINT Head
						{
							OFFSET 0.000000 1.667000 -0.240000
							CHANNELS 3 Zrotation Yrotation Xrotation
							End Site
							{
								OFFSET 0.000000 0.000000 0.000000
							}
						}
					}
				}
				JOINT LeftShoulder
				{
					OFFSET 0.000000 0.000000 0.000000
					CHANNELS 3 Zrotation Yrotation Xrotation
					JOINT LeftArm
					{
						OFFSET 2.700000 1.550000 -0.730000
						CHANNELS 3 Zrotation Yrotation Xrotation
						JOINT LeftForeArm
						{
							OFFSET 5.450000 0.000000 0.000000
							CHANNELS 3 Zrotation Yrotation Xrotation
							JOINT LeftHand
							{
								OFFSET 3.450000 0.000000 0.000000
								CHANNELS 3 Zrotation Yrotation Xrotation
								JOINT LeftHandIndex1
								{
									OFFSET 0.750000 0.000000 0.000000
									CHANNELS 3 Zrotation Yrotation Xrotation
									End Site
									{
										OFFSET 0.000000 0.000000 0.000000
									}
								}
							}
						}
					}
				}
				JOINT RightShoulder
				{
					OFFSET 0.000000 0.000000 0.000000
					CHANNELS 3 Zrotation Yrotation Xrotation
					JOINT RightArm
					{
						OFFSET -2.700000 1.550000 -0.730000
						CHANNELS 3 Zrotation Yrotation Xrotation
						JOINT RightForeArm
						{
							OFFSET -5.450000 0.000000 0.000000
							CHANNELS 3 Zrotation Yrotation Xrotation
							JOINT RightHand
							{
								OFFSET -3.450000 0.000000 0.000000
								CHANNELS 3 Zrotation Yrotation Xrotation
								JOINT RightHandIndex1
								{
									OFFSET -0.750000 0.000000 0.000000
									CHANNELS 3 Zrotation Yrotation Xrotation
									End Site
									{
										OFFSET 0.000000 0.000000 0.000000
									}
								}
							}
						}
					}
				}
			}
		}
	}
}
MOTION
Frames: 14
Frame Time: 0.016667
-9.198800 15.865690 0.756260 -175.558342 10.915157 170.488114 -15.473056 14.020917 2.977892 16.424695 -5.867165 -4.206744 -10.782422 13.898364 38.786934 1.024207 8.615410 1.408900 -0.132490 -0.475240 0.496040 17.914575 -8.947076 4.263845 -12.963938 2.891529 -43.514964 10.075533 -18.456390 57.076288 -1.504131 -9.224412 0.696671 -0.666620 -0.471940 0.189410 -2.406580 -5.391038 -9.114060 4.785108 -11.512732 37.039497 2.282666 -6.044529 -16.030308 3.632572 4.182734 -19.559451 1.287629 -7.835478 51.899822 -4.271950 -2.316820 -15.596460 -3.166980 -13.213438 9.959317 22.510063 24.677562 0.096345 -11.167527 19.132825 -5.755523 -3.576701 2.202514 0.839630 -0.599620 0.559170 -0.316310 -5.282523 10.767645 13.189645 -11.324935 -33.596294 -0.397086 1.806690 -0.250055 -0.259963 3.274910 -0.602307 0.038500 -0.251760 0.013260 -0.155720 
-9.190280 15.826640 0.684390 -175.169121 11.922040 169.569127 -15.457484 13.979575 2.957792 17.225651 -5.825850 -2.079733 -11.476565 14.415059 38.484813 1.038470 8.899437 1.358018 -0.197690 -0.561310 0.459750 17.949865 -8.841360 4.324759 -13.009359 2.905266 -44.187066 11.276033 -18.707891 55.902712 -1.478522 -9.107046 0.750753 -0.693020 -0.404370 0.179530 -2.479592 -5.418732 -9.132968 5.988770 -11.779385 37.166137 1.385090 -6.474155 -14.008264 3.590398 3.731939 -19.053175 0.309660 -7.026872 51.748597 -2.967690 -2.219520 -18.637120 -4.303485 -13.229587 9.763900 22.823013 25.205999 0.751391 -10.929159 14.613895 -5.090476 -3.478413 2.177255 0.893180 -0.588740 0.544390 -0.327670 -3.987688 10.758748 12.711891 -12.379023 -33.992588 -0.340932 2.624793 -1.157462 -0.372687 3.224207 -0.533490 -0.029860 -0.165730 0.076730 -0.170050 
-9.093930 15.790640 0.541700 -173.643251 15.028809 168.511551 -15.506502 14.073607 3.010107 19.504908 -6.024718 1.870836 -12.703607 15.095988 36.940492 1.243181 8.950889 1.343187 -0.066460 -0.325380 0.499220 17.913699 -8.622098 4.324536 -11.485731 3.208366 -45.362556 11.946390 -17.344737 52.315057 -1.388559 -8.306190 1.008228 -0.630310 -0.548050 0.166290 -2.323515 -5.812358 -9.165980 6.788695 -11.700311 38.081273 2.259825 -6.028954 -11.410217 3.682608 3.855626 -19.296040 -0.034181 -7.055083 54.167486 -2.451870 -2.111110 -22.542190 -4.501979 -13.502806 10.015283 22.179991 24.339985 0.802717 -8.382261 10.769789 -3.608948 -3.260330 2.271647 0.873350 -0.681730 0.657450 -0.279820 -3.704740 10.783329 12.846186 -11.390060 -37.168457 -0.247377 2.270900 -0.672256 -0.319506 3.273554 -0.608316 0.092350 -0.235190 -0.066820 -0.119220 
-8.955810 15.812160 0.354300 -173.360061 17.958316 167.477909 -15.564227 14.283205 3.060407 20.044892 -6.234817 7.089167 -13.044689 14.873349 34.007215 1.330621 8.801115 1.413458 0.030180 -0.165650 0.541420 17.858464 -8.477105 4.272588 -9.636977 3.178598 -46.947826 10.153223 -15.049753 49.791430 -1.245469 -7.445778 1.285119 -0.574260 -0.637320 0.168700 -2.102764 -6.331969 -9.146177 5.623608 -12.067350 39.570798 3.168811 -5.892747 -12.574645 4.020655 4.691638 -19.802105 1.194467 -6.499889 56.869916 -4.412650 -0.219750 -23.322450 -3.905016 -13.850614 9.556406 24.778198 22.956825 1.126906 -8.849603 7.600294 -3.050234 -3.046087 2.387619 0.873470 -0.717880 0.737020 -0.239260 -4.793997 10.429055 13.887741 -6.158189 -36.478956 -1.253862 -0.667515 -4.218820 -0.057250 3.455240 -0.496226 0.155540 -0.281150 -0.165920 -0.098450 
-8.805430 15.813570 0.157910 -172.690071 21.456700 166.782675 -15.529407 14.384734 3.170254 20.556878 -6.486803 12.813062 -13.469482 14.570996 30.124673 1.458043 8.754527 1.531711 0.057920 -0.071000 0.473660 17.898882 -8.428598 4.161756 -6.301547 3.173727 -48.374987 7.785398 -12.619769 46.955740 -1.010915 -6.535035 1.629524 -0.503290 -0.543800 0.124790 -2.152414 -6.585622 -9.056838 6.248337 -13.458055 40.481250 2.780929 -7.067471 -12.661182 4.094358 2.563563 -18.626255 -3.538078 -3.781927 52.885821 -2.538680 -0.403240 -19.019250 -3.145006 -13.197084 7.844613 27.767299 20.617221 1.438948 -10.586080 3.127035 -2.167958 -2.797855 2.710150 0.746190 -0.650890 0.674190 -0.149530 -5.083710 10.832319 13.749939 -6.200185 -37.662993 -1.212022 2.066182 -4.182114 -0.757787 3.450000 -0.557008 0.160010 -0.250200 -0.233670 -0.012360 
-8.628830 15.865470 -0.111050 -173.117381 24.134106 166.507815 -15.380595 14.407026 3.387932 18.855464 -7.489382 18.796781 -13.812223 13.772840 25.571831 1.631032 8.669263 1.691534 -0.068520 -0.097830 0.217540 18.020102 -8.614520 3.934755 -3.516979 1.004989 -50.462391 6.099281 -11.432169 44.228139 -0.801041 -5.920182 1.913027 -0.513770 -0.316170 0.084150 -2.489871 -6.684197 -8.765372 6.390622 -20.250249 42.107289 1.446781 -11.369258 -19.907828 5.342576 -2.097590 -19.870908 -13.942030 2.754644 49.398484 -0.677290 0.883990 -12.682590 1.406344 -8.982927 8.325056 23.729136 16.747758 0.045111 -3.974743 8.681993 -2.201757 -3.287454 2.300382 0.582780 -0.528730 0.571960 -0.051030 -10.875873 9.326710 14.238023 -0.488344 -33.105004 -2.270454 0.132796 1.708317 -0.178993 3.442883 -0.322033 0.146710 -0.138220 -0.177270 0.134580 
-8.450660 15.898520 -0.407520 -173.086711 26.057568 167.658481 -15.272280 14.228830 3.475265 17.610980 -8.145284 22.954738 -13.261171 13.202149 22.318041 1.309123 9.066398 1.534677 -0.518940 -0.732580 -0.009200 18.127428 -8.721037 3.944963 -1.641786 -0.141467 -53.624671 6.089813 -11.605546 42.076540 -0.583736 -5.654548 1.942515 -0.752290 0.008600 0.177430 -2.807494 -6.372612 -8.681813 6.906953 -26.546483 37.831799 1.973834 -17.525637 -21.922869 3.920726 -1.513637 -20.803126 -11.339984 4.567992 50.983154 -0.452500 3.215850 -9.325690 1.043648 -11.245395 9.692166 28.590769 26.474789 1.031081 -12.468910 29.429585 -8.141698 -3.891802 1.821829 0.707970 -0.312160 0.365550 -0.305300 -10.520946 10.153854 13.702743 -4.225480 -16.011355 -3.844954 2.725979 -18.483171 0.038266 3.770779 0.169741 -0.103930 0.016340 0.347740 -0.000410 
-8.205830 15.969260 -0.706480 -175.204001 25.178642 168.224071 -15.174295 14.049900 3.339409 15.542615 -7.909239 24.339163 -9.864144 12.020024 21.829322 1.406629 8.756024 1.761347 -0.475690 -0.748040 0.062570 18.225442 -8.899368 4.160281 -3.425498 -1.764372 -56.296014 8.028776 -12.303638 40.143169 -0.500560 -5.939186 1.744489 -0.725990 0.126160 0.282850 -3.123285 -5.785402 -8.583412 11.516198 -28.665288 30.225426 -4.496240 -17.992188 -23.848306 4.343949 1.065671 -19.869077 -3.411359 1.572451 42.516924 -2.967110 4.482210 2.260030 3.014274 -10.448229 9.870308 24.678096 21.517129 -0.238637 -7.825724 26.336284 -5.493351 -4.237733 2.122399 0.420840 -0.136810 0.223550 -0.220100 -14.382294 7.916782 12.624509 5.214550 -12.335249 -5.398159 -5.200564 -23.676241 2.934037 4.198314 -0.168353 -0.044850 -0.157250 0.234880 0.056720 
-7.892020 16.084190 -0.993460 178.998895 19.896659 169.427514 -14.669918 12.086303 2.488146 10.581482 -7.730791 22.017406 -6.294894 9.080769 25.013877 1.857952 5.813755 2.084452 2.768040 4.114510 1.833190 18.945471 -10.201555 4.503004 -7.718977 -5.829639 -62.066826 9.141887 -12.295521 38.764259 -2.420658 -5.442239 0.583271 1.265290 -0.364100 0.700700 -5.339992 -0.351570 -7.500496 18.424347 -20.891294 14.041518 -17.010016 -16.036601 -19.507576 -5.450775 4.647289 -6.318979 6.114878 18.709571 9.905933 54.850750 22.184620 -48.478910 19.654934 2.318638 3.190299 2.112822 -24.168045 4.091973 -3.385921 17.690839 -2.255967 -1.679253 3.378377 0.621540 -1.583750 2.610030 1.000160 -8.308681 -23.686303 -5.828160 0.914752 -7.668170 0.720364 -20.950748 -14.364509 3.535773 6.078514 -0.335129 1.613850 0.664950 -1.705580 1.757980 
-7.612950 16.200900 -1.336160 178.077336 22.210676 171.126333 -14.628716 12.280159 2.580279 9.163540 -7.064345 21.186734 -3.600845 7.713589 23.629591 1.980119 5.137354 2.344289 2.779550 4.178110 1.752130 18.885316 -10.369827 4.714579 -6.244743 -4.458726 -62.058771 10.672372 -12.042934 36.325320 -2.428295 -4.934223 0.688814 1.223770 -0.332760 0.749590 -5.242664 -0.189857 -7.495602 19.316633 -16.957938 10.362750 -17.441216 -12.197748 -21.463793 -4.760667 1.133785 -6.612523 2.708107 14.439578 10.565211 56.730730 19.722150 -49.855610 24.395561 8.503853 2.561506 -16.569032 -36.460520 10.746982 10.338110 14.212157 0.420656 -1.897586 3.682868 0.558490 -1.664580 2.666350 1.060020 -14.016433 -27.818219 -5.178899 -2.972913 -16.098716 2.447864 -8.987723 -6.942881 -0.547862 5.954974 0.335298 1.737150 0.639610 -1.734830 1.915100 
-7.370750 16.233740 -1.617310 177.112620 32.635204 168.196956 -15.070329 14.496073 3.524538 5.819814 -5.776590 22.642322 -1.725392 9.005465 26.966249 1.530321 8.018950 2.211076 -0.785950 -0.876110 -0.573530 18.209866 -9.222833 4.335056 0.516993 -0.955798 -56.115646 9.114940 -11.477598 36.179155 -0.069268 -5.447044 2.153723 -0.714550 0.700670 0.176800 -2.882218 -6.665834 -8.115744 14.684477 -20.627073 19.597517 -11.543748 -13.238386 -31.192997 10.938883 -6.529911 -17.397526 -17.593648 3.527980 33.488185 0.552360 -1.197080 17.266290 18.782552 -4.144758 3.673658 -9.621077 -23.667224 1.249356 10.983419 53.466565 6.725639 -4.809201 2.651132 -0.138710 0.244420 -0.238550 -0.038030 -32.678710 -1.010131 6.592330 19.706349 -35.279733 -9.809859 4.575640 4.642389 -1.509227 3.083992 -0.053699 -0.087190 -0.036280 0.375420 0.385060 
-7.158070 16.276630 -1.850200 176.418454 35.984474 167.261588 -15.054599 14.346631 3.435846 8.112628 -7.971472 19.107794 -8.047425 12.205299 32.892013 1.630850 8.897997 1.840589 -0.489650 -0.627840 -0.237720 18.263827 -9.109028 4.224414 0.547602 1.085516 -52.040307 9.956445 -10.590975 34.241595 -0.171203 -4.757549 2.375071 -0.629160 0.358090 0.099990 -3.069779 -6.332431 -8.219239 15.058700 -21.466235 18.783854 -10.571514 -13.551829 -29.754550 8.585496 -6.733229 -16.952817 -19.266866 5.015129 36.495820 0.074950 0.704910 12.803570 14.123111 0.259739 5.666614 -7.171233 -8.796435 -0.338436 9.594145 30.444152 2.906314 -4.289078 2.660008 0.109850 -0.016730 -0.033820 -0.021850 -25.849180 -1.784170 7.776720 26.923715 -32.923798 -11.148212 -2.880330 5.760808 -0.381255 3.394010 -0.447878 -0.054020 -0.099590 0.144840 0.258170 
-6.869480 16.335870 -2.076520 173.385332 35.640499 165.907913 -14.985433 14.423822 3.537335 8.589053 -9.143703 12.773934 -10.027654 13.261234 37.383178 1.522152 9.494379 1.592055 -0.683800 -0.947900 -0.317840 18.236761 -9.443371 3.998544 -0.352508 1.000273 -47.029368 9.499021 -9.382605 30.402705 -0.011937 -3.993231 2.596412 -0.761130 0.466270 0.161960 -2.961965 -6.213295 -8.341147 10.908612 -20.318243 16.304199 -8.526438 -14.029637 -31.921288 8.549875 -6.740660 -15.942909 -19.497050 6.178077 38.134893 0.022920 1.389730 14.718230 12.173382 2.934681 4.551668 -10.642792 -7.164941 0.292240 10.766599 34.674890 4.339530 -4.463752 2.640565 0.190880 0.034530 -0.101550 -0.125010 -23.800259 -3.821210 7.474711 29.012070 -35.020226 -11.690280 -6.725217 9.019465 0.296926 3.346105 -0.559239 -0.156320 -0.072090 0.370070 0.192870 
-6.632420 16.340570 -2.274170 170.849262 36.912822 163.050192 -14.916504 14.379684 3.742225 9.218226 -9.944769 7.860424 -13.041214 14.591925 39.506022 1.599949 9.718254 1.476444 -0.542380 -0.743600 -0.232940 18.247008 -9.778538 3.572708 -1.206957 0.507875 -40.608450 9.367669 -8.910258 28.421431 -0.052943 -3.582428 2.795152 -0.684060 0.348740 0.090750 -2.997328 -5.911742 -8.378737 8.875192 -20.016369 15.307085 -6.686275 -15.153773 -32.117772 7.321791 -7.212946 -15.443032 -22.286777 7.997216 41.196937 1.476840 0.847570 12.347990 6.420618 5.814993 3.857146 -11.939193 1.371568 -0.691869 15.540069 25.872539 4.441248 -4.186095 2.677091 0.258640 -0.072870 0.004730 -0.080280 -16.173017 -4.446440 8.739465 27.861629 -35.998636 -9.560291 -7.840966 5.911367 0.650494 3.453472 -0.496189 -0.114900 -0.024750 0.249490 0.196040 
